HIERARCHY
ROOT Hips
{
    OFFSET   0.000000   0.000000   0.000000
    CHANNELS 6 Xposition Yposition Zposition Zrotation Xrotation Yrotation
    JOINT Chest
    {
        OFFSET   0.000000   8.007230   0.000000
        CHANNELS 3 Zrotation Xrotation Yrotation
        JOINT Chest2
        {
            OFFSET   0.000000  22.077100   0.000000
            CHANNELS 3 Zrotation Xrotation Yrotation
            JOINT Neck
            {
                OFFSET   0.000000  23.254800  -0.000021
                CHANNELS 3 Zrotation Xrotation Yrotation
                JOINT Head
                {
                    OFFSET   0.000000  14.370000   1.956610
                    CHANNELS 3 Zrotation Xrotation Yrotation
                    End Site
                    {
                        OFFSET   0.000000  19.566000   0.000000
                    }
                }
            }
            JOINT LeftCollar
            {
                OFFSET   3.911900  19.017000  -0.467063
                CHANNELS 3 Zrotation Xrotation Yrotation
                JOINT LeftShoulder
                {
                    OFFSET  10.383700   0.000000   0.000000
                    CHANNELS 3 Zrotation Xrotation Yrotation
                    JOINT LeftElbow
                    {
                        OFFSET  26.662100   0.001529   0.000325
                        CHANNELS 3 Zrotation Xrotation Yrotation
                        JOINT LeftWrist
                        {
                            OFFSET  28.869000  -0.000011  -0.000096
                            CHANNELS 3 Zrotation Xrotation Yrotation
                            JOINT LeftFinger0
                            {
                                OFFSET   2.044650  -2.323460   3.252850
                                CHANNELS 3 Zrotation Xrotation Yrotation
                                JOINT LeftFinger01
                                {
                                    OFFSET   3.088130   0.000000   0.000000
                                    CHANNELS 3 Zrotation Xrotation Yrotation
                                    JOINT LeftFinger02
                                    {
                                        OFFSET   2.639460   0.000000   0.000000
                                        CHANNELS 3 Zrotation Xrotation Yrotation
                                        End Site
                                        {
                                            OFFSET   2.582190   0.000000   0.000000
                                        }
                                    }
                                }
                            }
                            JOINT LeftFinger1
                            {
                                OFFSET   8.364480   0.000000   3.252850
                                CHANNELS 3 Zrotation Xrotation Yrotation
                                JOINT LeftFinger11
                                {
                                    OFFSET   4.646930   0.000000   0.000000
                                    CHANNELS 3 Zrotation Xrotation Yrotation
                                    JOINT LeftFinger12
                                    {
                                        OFFSET   2.323460   0.000000   0.000000
                                        CHANNELS 3 Zrotation Xrotation Yrotation
                                        End Site
                                        {
                                            OFFSET   2.273050   0.000000   0.000000
                                        }
                                    }
                                }
                            }
                            JOINT LeftFinger2
                            {
                                OFFSET   8.364480   0.000016   1.078090
                                CHANNELS 3 Zrotation Xrotation Yrotation
                                JOINT LeftFinger21
                                {
                                    OFFSET   5.111620   0.000000   0.000000
                                    CHANNELS 3 Zrotation Xrotation Yrotation
                                    JOINT LeftFinger22
                                    {
                                        OFFSET   2.788160   0.000017   0.000000
                                        CHANNELS 3 Zrotation Xrotation Yrotation
                                        End Site
                                        {
                                            OFFSET   2.727660   0.000000   0.000000
                                        }
                                    }
                                }
                            }
                            JOINT LeftFinger3
                            {
                                OFFSET   7.899780   0.000015  -1.078090
                                CHANNELS 3 Zrotation Xrotation Yrotation
                                JOINT LeftFinger31
                                {
                                    OFFSET   4.646920   0.000000   0.000000
                                    CHANNELS 3 Zrotation Xrotation Yrotation
                                    JOINT LeftFinger32
                                    {
                                        OFFSET   2.323470   0.000000   0.000000
                                        CHANNELS 3 Zrotation Xrotation Yrotation
                                        End Site
                                        {
                                            OFFSET   2.273050   0.000000   0.000000
                                        }
                                    }
                                }
                            }
                            JOINT LeftFinger4
                            {
                                OFFSET   7.435090   0.000000  -3.252850
                                CHANNELS 3 Zrotation Xrotation Yrotation
                                JOINT LeftFinger41
                                {
                                    OFFSET   3.717550   0.000000   0.000000
                                    CHANNELS 3 Zrotation Xrotation Yrotation
                                    JOINT LeftFinger42
                                    {
                                        OFFSET   1.858760   0.000000   0.000000
                                        CHANNELS 3 Zrotation Xrotation Yrotation
                                        End Site
                                        {
                                            OFFSET   1.818440   0.000000   0.000000
                                        }
                                    }
                                }
                            }
                        }
                    }
                }
            }
            JOINT RightCollar
            {
                OFFSET  -3.911900  19.017000  -0.467062
                CHANNELS 3 Zrotation Xrotation Yrotation
                JOINT RightShoulder
                {
                    OFFSET -10.383700   0.000015   0.000000
                    CHANNELS 3 Zrotation Xrotation Yrotation
                    JOINT RightElbow
                    {
                        OFFSET -26.662100   0.001341   0.000385
                        CHANNELS 3 Zrotation Xrotation Yrotation
                        JOINT RightWrist
                        {
                            OFFSET -28.869000   0.000025  -0.000080
                            CHANNELS 3 Zrotation Xrotation Yrotation
                            JOINT RightFinger0
                            {
                                OFFSET  -2.044650  -2.323490   3.252850
                                CHANNELS 3 Zrotation Xrotation Yrotation
                                JOINT RightFinger01
                                {
                                    OFFSET  -3.088130   0.000000   0.000000
                                    CHANNELS 3 Zrotation Xrotation Yrotation
                                    JOINT RightFinger02
                                    {
                                        OFFSET  -2.639460   0.000000   0.000000
                                        CHANNELS 3 Zrotation Xrotation Yrotation
                                        End Site
                                        {
                                            OFFSET  -2.582190   0.000000   0.000000
                                        }
                                    }
                                }
                            }
                            JOINT RightFinger1
                            {
                                OFFSET  -8.364480   0.000000   3.252850
                                CHANNELS 3 Zrotation Xrotation Yrotation
                                JOINT RightFinger11
                                {
                                    OFFSET  -4.646930   0.000000   0.000000
                                    CHANNELS 3 Zrotation Xrotation Yrotation
                                    JOINT RightFinger12
                                    {
                                        OFFSET  -2.323470   0.000000   0.000000
                                        CHANNELS 3 Zrotation Xrotation Yrotation
                                        End Site
                                        {
                                            OFFSET  -2.273050   0.000000   0.000000
                                        }
                                    }
                                }
                            }
                            JOINT RightFinger2
                            {
                                OFFSET  -8.364480   0.000000   1.078090
                                CHANNELS 3 Zrotation Xrotation Yrotation
                                JOINT RightFinger21
                                {
                                    OFFSET  -5.111610   0.000000   0.000000
                                    CHANNELS 3 Zrotation Xrotation Yrotation
                                    JOINT RightFinger22
                                    {
                                        OFFSET  -2.788160   0.000000   0.000000
                                        CHANNELS 3 Zrotation Xrotation Yrotation
                                        End Site
                                        {
                                            OFFSET  -2.727660   0.000000   0.000000
                                        }
                                    }
                                }
                            }
                            JOINT RightFinger3
                            {
                                OFFSET  -7.899780   0.000000  -1.078090
                                CHANNELS 3 Zrotation Xrotation Yrotation
                                JOINT RightFinger31
                                {
                                    OFFSET  -4.646920   0.000000   0.000000
                                    CHANNELS 3 Zrotation Xrotation Yrotation
                                    JOINT RightFinger32
                                    {
                                        OFFSET  -2.323470   0.000000   0.000000
                                        CHANNELS 3 Zrotation Xrotation Yrotation
                                        End Site
                                        {
                                            OFFSET  -2.273050   0.000000   0.000000
                                        }
                                    }
                                }
                            }
                            JOINT RightFinger4
                            {
                                OFFSET  -7.435090   0.000000  -3.252850
                                CHANNELS 3 Zrotation Xrotation Yrotation
                                JOINT RightFinger41
                                {
                                    OFFSET  -3.717550   0.000000   0.000000
                                    CHANNELS 3 Zrotation Xrotation Yrotation
                                    JOINT RightFinger42
                                    {
                                        OFFSET  -1.858770   0.000000   0.000000
                                        CHANNELS 3 Zrotation Xrotation Yrotation
                                        End Site
                                        {
                                            OFFSET  -1.818440   0.000000   0.000000
                                        }
                                    }
                                }
                            }
                        }
                    }
                }
            }
        }
    }
    JOINT LeftHip
    {
        OFFSET   9.783010   0.000000   0.000000
        CHANNELS 3 Zrotation Xrotation Yrotation
        JOINT LeftKnee
        {
            OFFSET   0.000070 -41.789100   0.000028
            CHANNELS 3 Zrotation Xrotation Yrotation
            JOINT LeftAnkle
            {
                OFFSET   0.000087 -41.133200  -0.000100
                CHANNELS 3 Zrotation Xrotation Yrotation
                JOINT LeftToe
                {
                    OFFSET   0.000000  -6.358960  14.674500
                    CHANNELS 3 Zrotation Xrotation Yrotation
                    End Site
                    {
                        OFFSET   0.000000   0.000000   3.913200
                    }
                }
            }
        }
    }
    JOINT RightHip
    {
        OFFSET  -9.783020   0.000000   0.000000
        CHANNELS 3 Zrotation Xrotation Yrotation
        JOINT RightKnee
        {
            OFFSET   0.000044 -41.789100  -0.000870
            CHANNELS 3 Zrotation Xrotation Yrotation
            JOINT RightAnkle
            {
                OFFSET  -0.000090 -41.133200  -0.000245
                CHANNELS 3 Zrotation Xrotation Yrotation
                JOINT RightToe
                {
                    OFFSET   0.000000  -6.358960  14.674500
                    CHANNELS 3 Zrotation Xrotation Yrotation
                    End Site
                    {
                        OFFSET   0.000000   0.000000   3.913200
                    }
                }
            }
        }
    }
}
MOTION
Frames: 4
Frame Time:   0.016667
 -4.181270  88.701700  -0.071444  -4.690580 -23.108100  -8.115130   1.601290  12.168800  -4.404020   4.329210  24.165600  -9.492710   2.778410   2.023950  -0.099329   4.580080   4.075500  22.013400  -1.828500  -3.549550   2.552140 -46.898400  14.691500 -72.917300  27.384300   0.553106 -50.738500  63.789600  12.513300 -33.605900  59.000100  51.606600 -94.739000 -30.110500  -0.004747   0.010985 -10.055300   0.007646   0.005146 -11.115100   2.119770 -10.675500  -9.256000   0.004517  -0.002113  -6.479220  -0.004315  -0.001518 -13.802700   1.224670  -4.958500 -13.856600   0.000518  -0.000897  -9.228460   0.003737  -0.000531  -6.338900   0.315670  -2.834250  -6.346500   0.000810  -0.000557  -4.226800   0.001881  -0.000662  -6.874450  -0.583676   4.792930 -10.346600   0.001012  -0.001486  -6.890810   0.000769  -0.000567   4.471750  -3.013260  10.477700  41.960400  11.078400  65.875700 -25.334100  -1.408210  53.745800 -84.823800  43.331400  51.653800 -42.315100  29.251900  59.290300  23.420100   0.000749  -0.006071   6.710040   0.000624   0.004645   6.934770  -0.241054  -1.991120   5.678000  -0.007335  -0.000299   3.974590  -0.009924  -0.000208   3.575880  -0.577571  -9.221150   3.623140   0.006482  -0.000312   2.412990   0.004669  -0.002357   4.829900  -1.232740 -14.283300   4.984430   0.000957  -0.000023   3.319610  -0.000957  -0.002106   9.021200  -2.809830 -17.147500  14.167300  -0.001078  -0.000386   9.435410  -0.004092  -0.000176   6.353560  16.269700   2.892850  -1.776370  20.103800  12.903700  -6.747620 -12.826200   4.388360  -0.000000   0.000000   0.000000   7.427430  17.749500  -8.500230  -1.934090  13.584700  -8.061030  -9.825370  -6.892050   3.382210   0.000000   0.000000   0.000000
 -4.093920  88.711800  -0.064922  -4.754940 -23.081000  -8.232750   1.589030  12.217800  -4.374620   4.302940  24.265700  -9.433530   2.743500   2.016220  -0.098604   4.522700   4.060530  22.024800  -1.766850  -3.703150   2.794230 -46.302600  14.784100 -73.732200  26.934600   0.543829 -49.472800  63.547300  12.769300 -33.332700  58.729000  51.615100 -94.222400 -30.489800  -0.004798   0.011137 -10.244900   0.007687   0.005218 -11.169500   2.128660 -10.649800  -9.301140   0.004582  -0.002075  -6.510820  -0.004366  -0.001500 -13.812500   1.208680  -4.905950 -13.864300   0.000569  -0.000878  -9.233590   0.003704  -0.000495  -6.357220   0.304115  -2.735060  -6.364280   0.000855  -0.000570  -4.238660   0.001854  -0.000637  -6.913950  -0.612073   5.014840 -10.410100   0.001059  -0.001483  -6.933120   0.000813  -0.000605   4.501070  -3.139530  10.632100  41.555200  10.958500  66.254700 -25.280500  -1.262070  53.095400 -84.417500  43.570200  51.150800 -42.200900  29.190700  59.328200  23.533200   0.000743  -0.006090   6.766570   0.000630   0.004683   6.960150  -0.222788  -1.846500   5.698340  -0.007365  -0.000333   3.988840  -0.009997  -0.000237   3.607520  -0.579133  -9.136200   3.654510   0.006517  -0.000350   2.433890   0.004562  -0.002413   4.912840  -1.252820 -14.270100   5.069760   0.000890  -0.000058   3.376450  -0.001060  -0.002152   9.156810  -2.848710 -17.136700  14.379700  -0.001152  -0.000416   9.576880  -0.004164  -0.000178   6.315030  16.241200   2.865260  -1.821160  20.127300  13.002100  -6.674100 -12.862400   4.461430  -0.000000   0.000000  -0.000000   7.387170  17.735600  -8.472940  -1.941820  13.607200  -8.030300  -9.771090  -6.901660   3.451440   0.000000   0.000000  -0.000000
 -4.000520  88.720700  -0.069828  -4.818670 -23.037500  -8.358780   1.569210  12.266000  -4.346880   4.261310  24.364900  -9.375990   2.716100   2.030650  -0.097650   4.477830   4.089910  22.064800  -1.672930  -3.887710   3.123470 -45.675800  14.901900 -74.722400  26.352700   0.587099 -48.013800  63.281200  13.090100 -32.938700  58.599000  51.645900 -93.767200 -30.803500  -0.004842   0.011292 -10.401700   0.007725   0.005286 -11.159400   2.135160 -10.673900  -9.294340   0.004639  -0.002048  -6.506060  -0.004425  -0.001480 -13.659100   1.202140  -4.923730 -13.711100   0.000628  -0.000840  -9.131570   0.003672  -0.000478  -6.226660   0.293640  -2.715980  -6.233750   0.000896  -0.000574  -4.151710   0.001832  -0.000606  -6.808400  -0.619295   5.202490 -10.255000   0.001111  -0.001485  -6.829790   0.000859  -0.000645   4.549680  -3.339870  10.855600  40.950000  10.845200  66.740500 -25.233400  -1.035150  52.069900 -83.866600  43.832200  50.467600 -42.099200  29.162500  59.438900  23.618000   0.000749  -0.006116   6.808990   0.000633   0.004721   6.941160  -0.191706  -1.598040   5.681910  -0.007383  -0.000355   3.977340  -0.010064  -0.000264   3.585890  -0.566001  -8.953640   3.630770   0.006549  -0.000379   2.418080   0.004455  -0.002462   4.956130  -1.263290 -14.263100   5.114270   0.000815  -0.000078   3.406110  -0.001167  -0.002204   9.251880  -2.862260 -17.042600  14.521500  -0.001235  -0.000435   9.671370  -0.004225  -0.000183   6.260850  16.209700   2.844560  -1.855040  20.116300  13.110100  -6.606920 -12.877200   4.532840   0.000000   0.000000  -0.000000   7.336060  17.708400  -8.464660  -1.953310  13.607000  -8.001250  -9.713970  -6.899900   3.556160   0.000000   0.000000   0.000000
 -3.900950  88.730600  -0.074733  -4.871630 -22.983300  -8.483290   1.543000  12.309600  -4.317940   4.205540  24.455500  -9.314040   2.693860   2.054070  -0.096756   4.441620   4.137910  22.095100  -1.556080  -4.076090   3.490870 -45.093100  15.022200 -75.777200  25.751400   0.717309 -46.504400  63.033800  13.439000 -32.517700  58.583300  51.685200 -93.372600 -31.058800  -0.004878   0.011449 -10.529400   0.007761   0.005353 -11.144300   2.151200 -10.779900  -9.284490   0.004694  -0.002024  -6.499150  -0.004487  -0.001460 -13.441600   1.200000  -5.006410 -13.494400   0.000688  -0.000798  -8.987280   0.003642  -0.000462  -6.039480   0.287574  -2.713260  -6.046750   0.000934  -0.000576  -4.027150   0.001813  -0.000572  -6.649610  -0.620254   5.300890 -10.018000   0.001162  -0.001489  -6.671980   0.000905  -0.000684   4.610170  -3.575360  11.115300  40.320400  10.670900  67.296600 -25.142500  -0.671058  50.800300 -83.219400  44.138700  49.661000 -42.009900  29.124200  59.563200  23.716300   0.000758  -0.006145   6.858140   0.000634   0.004758   6.892200  -0.153406  -1.293930   5.641180  -0.007401  -0.000383   3.948830  -0.010130  -0.000291   3.548690  -0.544008  -8.732580   3.590910   0.006580  -0.000408   2.391530   0.004348  -0.002513   4.992820  -1.272130 -14.257300   5.151960   0.000736  -0.000100   3.431240  -0.001274  -0.002259   9.348350  -2.877570 -16.958300  14.666200  -0.001320  -0.000457   9.767710  -0.004285  -0.000187   6.193880  16.189400   2.830990  -1.887280  20.087700  13.224300  -6.546060 -12.879100   4.595270  -0.000000   0.000000   0.000000   7.274940  17.680000  -8.460210  -1.965540  13.600300  -7.966140  -9.652690  -6.892130   3.665600  -0.000000   0.000000   0.000000
